<svg width="23" height="23" viewBox="0 0 23 23" fill="none" xmlns="http://www.w3.org/2000/svg">
<path d="M11.5 0C5.14391 0 0 5.14342 0 11.5C0 17.8561 5.14342 23 11.5 23C17.8561 23 23 17.8566 23 11.5C23 5.14387 17.8566 0 11.5 0ZM11.5 21.2031C6.13705 21.2031 1.79688 16.8634 1.79688 11.5C1.79688 6.137 6.13664 1.79688 11.5 1.79688C16.863 1.79688 21.2031 6.13664 21.2031 11.5C21.2031 16.863 16.8634 21.2031 11.5 21.2031Z" fill="black"/>
<path d="M15.4345 14.1639L12.7705 11.4999L15.4345 8.83598C15.7853 8.48514 15.7854 7.91629 15.4345 7.56541C15.0836 7.21452 14.5148 7.21457 14.164 7.56541L11.5 10.2294L8.83596 7.56541C8.48516 7.21452 7.91623 7.21452 7.56539 7.56541C7.21455 7.91629 7.21455 8.48514 7.56543 8.83598L10.2294 11.4999L7.56543 14.1639C7.21455 14.5148 7.2145 15.0836 7.56539 15.4345C7.91636 15.7854 8.48521 15.7853 8.83596 15.4345L11.5 12.7705L14.164 15.4345C14.5147 15.7853 15.0836 15.7853 15.4345 15.4345C15.7854 15.0836 15.7854 14.5147 15.4345 14.1639Z" fill="black"/>
</svg>
