<svg width="24" height="24" viewBox="0 0 24 24" fill="none" xmlns="http://www.w3.org/2000/svg">
<path d="M20.0002 2H9.3335V5.33333H10.6668V3.33333H20.0002C20.4002 3.33333 20.6668 3.6 20.6668 4V11.3333C20.6668 11.7333 20.4002 12 20.0002 12H11.3335V16.6667H7.80016L5.3335 18.6V16.6667H3.3335C2.9335 16.6667 2.66683 16.4 2.66683 16V8.66667C2.66683 8.26667 2.9335 8 3.3335 8H12.0002V6.66667H3.3335C2.20016 6.66667 1.3335 7.53333 1.3335 8.66667V16C1.3335 17.1333 2.20016 18 3.3335 18H4.00016V21.4L8.20016 18H12.6668V13.3333H20.0002C21.1335 13.3333 22.0002 12.4667 22.0002 11.3333V4C22.0002 2.86667 21.1335 2 20.0002 2Z" fill="black"/>
<path d="M4.1333 15.2667H5.7333L6.1333 14.2H8.19997L8.59997 15.2667H10.2L7.9333 9.33334H6.3333L4.1333 15.2667ZM7.1333 11L7.79997 13.0667H6.46663L7.1333 11Z" fill="black"/>
<path d="M13.3335 11.3333C14.0668 11.3333 15.0668 11.1333 16.0002 10.6667C16.9335 11.1333 18.0002 11.3333 18.6668 11.3333V10C18.6668 10 18.0002 10 17.2668 9.73333C18.0668 8.93333 18.6668 7.73333 18.6668 6V5.33333H16.6668V4H15.3335V5.33333H13.3335V6.66667H17.2668C17.1335 7.86667 16.6002 8.6 16.0002 9.06667C15.6002 8.73333 15.2002 8.26667 14.9335 7.66667H13.5335C13.8002 8.53333 14.2002 9.2 14.7335 9.73333C14.0668 10 13.4668 10 13.3335 10V11.3333Z" fill="black"/>
</svg>
