<svg width="24" height="24" viewBox="0 0 24 24" fill="none" xmlns="http://www.w3.org/2000/svg">
<path d="M4.75036 19.2201C5.15314 19.6252 5.80808 19.6271 6.21321 19.2243C6.61835 18.8216 6.62025 18.1666 6.21747 17.7615C5.81469 17.3563 5.15974 17.3544 4.75461 17.7572C4.34948 18.16 4.34757 18.8149 4.75036 19.2201Z" fill="black"/>
<path fill-rule="evenodd" clip-rule="evenodd" d="M15.6769 2.7292C14.9717 2.01989 14.0476 1.85955 13.2257 2.11247C12.4158 2.36171 11.7125 3.00632 11.3711 3.89079C11.1137 4.5574 10.7547 5.26699 10.2378 5.99598C9.80256 6.60983 9.59649 7.38698 9.69518 8.12506C9.01491 7.92072 8.24703 8.08608 7.70793 8.62205L7.26235 9.06505C6.65662 9.66726 6.65378 10.6465 7.25598 11.2522C8.0096 12.0102 7.79353 13.3049 6.88064 13.8609C5.55347 14.6693 4.12838 15.6952 3.61828 16.4754C0.844952 20.7176 3.25795 23.1447 7.5162 20.3961C8.31633 19.8796 9.386 18.2663 10.2238 16.8946C10.7355 16.0568 11.8863 15.9096 12.5785 16.6057C13.1652 17.196 14.1194 17.1987 14.7096 16.6119L15.1833 16.141C15.6749 15.6522 15.8594 14.9713 15.7361 14.3384C16.5251 14.4952 17.3753 14.2692 17.9886 13.6595L20.5182 11.1446C21.4973 10.1711 21.5019 8.58821 20.5284 7.60906L15.6769 2.7292ZM12.304 4.2509C12.5391 3.64167 13.0137 3.22399 13.5199 3.06823C14.0141 2.91615 14.5441 3.0081 14.9677 3.43425L18.1451 6.63016C17.8017 7.52306 17.102 8.96388 15.8969 9.95103C18.2347 9.64907 19.2586 8.81821 19.7041 8.19824L19.8193 8.31411C20.4034 8.9016 20.4006 9.85134 19.8131 10.4354L17.2836 12.9503C16.6961 13.5344 15.7463 13.5316 15.1622 12.9441L11.1147 8.87294C10.5439 8.29879 10.5231 7.32245 11.0536 6.57437C11.6223 5.7723 12.0193 4.98834 12.304 4.2509ZM9.82719 9.33533L14.4823 14.0176C14.8717 14.4093 14.8699 15.0425 14.4782 15.4318L14.0045 15.9028C13.806 16.1002 13.485 16.0992 13.2876 15.9007C12.1281 14.7344 10.2126 14.9945 9.3704 16.3734C8.9568 17.0505 8.49772 17.7677 8.05146 18.372C7.58101 19.009 7.20621 19.406 6.97389 19.5559C5.99137 20.1901 5.18703 20.4773 4.60294 20.5466C4.02107 20.6156 3.75206 20.4654 3.63956 20.3523C3.52706 20.2391 3.37847 19.9692 3.45086 19.3878C3.52352 18.8041 3.81539 18.0014 4.45529 17.0226C4.61448 16.7791 4.98589 16.4116 5.55643 15.9685C6.10389 15.5433 6.75855 15.1062 7.40082 14.715C8.81063 13.8563 9.2193 11.8086 7.96515 10.5472C7.75232 10.3331 7.75333 9.98703 7.96739 9.77421L8.41298 9.33121C8.80464 8.94182 9.4378 8.94367 9.82719 9.33533Z" fill="black"/>
</svg>
