<svg width="20" height="20" viewBox="0 0 20 20" fill="none" xmlns="http://www.w3.org/2000/svg">
<path d="M18.1614 14.3078C17.852 14.0219 17.3973 13.9516 17.0083 13.8859C16.4692 13.7969 16.2629 13.6984 15.9489 13.4172C15.2786 12.8219 15.2786 11.9594 15.9489 11.3641L17.3692 10.1031C19.5442 8.1813 19.5442 5.03125 17.3692 3.10938C15.7661 1.69844 13.6145 1 11.3786 1C8.7676 1 6.0395 1.95156 3.93481 3.81719C0.0207524 7.27656 0.0207524 12.9438 3.93481 16.4031C5.88013 18.1234 8.5051 18.9812 11.102 19H11.1817C13.7786 19 16.3379 18.1609 18.1567 16.5438C18.8317 15.9484 18.7187 14.8281 18.1614 14.3078Z" stroke="black" stroke-miterlimit="10"/>
<path d="M4.75 9.25C5.57843 9.25 6.25 8.5784 6.25 7.75C6.25 6.92157 5.57843 6.25 4.75 6.25C3.92157 6.25 3.25 6.92157 3.25 7.75C3.25 8.5784 3.92157 9.25 4.75 9.25Z" fill="black"/>
<path d="M5.125 14.0781C5.95343 14.0781 6.625 13.4066 6.625 12.5781C6.625 11.7497 5.95343 11.0781 5.125 11.0781C4.29657 11.0781 3.625 11.7497 3.625 12.5781C3.625 13.4066 4.29657 14.0781 5.125 14.0781Z" fill="black"/>
<path d="M8.5 6.25C9.3284 6.25 10 5.57843 10 4.75C10 3.92157 9.3284 3.25 8.5 3.25C7.67157 3.25 7 3.92157 7 4.75C7 5.57843 7.67157 6.25 8.5 6.25Z" fill="black"/>
<path d="M11.75 15.2031C11.75 16.1696 10.9665 16.9531 10 16.9531C9.0335 16.9531 8.25 16.1696 8.25 15.2031C8.25 14.2366 9.0335 13.4531 10 13.4531C10.9665 13.4531 11.75 14.2366 11.75 15.2031Z" stroke="black"/>
<path d="M13.375 6.25C14.2034 6.25 14.875 5.57843 14.875 4.75C14.875 3.92157 14.2034 3.25 13.375 3.25C12.5466 3.25 11.875 3.92157 11.875 4.75C11.875 5.57843 12.5466 6.25 13.375 6.25Z" fill="black"/>
</svg>
