<svg width="24" height="24" viewBox="0 0 24 24" fill="none" xmlns="http://www.w3.org/2000/svg">
<path d="M18.7042 4.7998H5.2962C4.13861 4.7998 3.2002 5.73822 3.2002 6.8958V18.7038C3.2002 19.8614 4.13861 20.7998 5.2962 20.7998H18.7042C19.8618 20.7998 20.8002 19.8614 20.8002 18.7038V6.8958C20.8002 5.73822 19.8618 4.7998 18.7042 4.7998Z" stroke="black" stroke-width="2" stroke-linecap="round" stroke-linejoin="round"/>
<path d="M7.20039 15.1996C7.64222 15.1996 8.00039 14.8414 8.00039 14.3996C8.00039 13.9578 7.64222 13.5996 7.20039 13.5996C6.75856 13.5996 6.40039 13.9578 6.40039 14.3996C6.40039 14.8414 6.75856 15.1996 7.20039 15.1996Z" fill="black"/>
<path d="M10.3996 15.1996C10.8414 15.1996 11.1996 14.8414 11.1996 14.3996C11.1996 13.9578 10.8414 13.5996 10.3996 13.5996C9.95778 13.5996 9.59961 13.9578 9.59961 14.3996C9.59961 14.8414 9.95778 15.1996 10.3996 15.1996Z" fill="black"/>
<path d="M13.5998 15.1996C14.0416 15.1996 14.3998 14.8414 14.3998 14.3996C14.3998 13.9578 14.0416 13.5996 13.5998 13.5996C13.158 13.5996 12.7998 13.9578 12.7998 14.3996C12.7998 14.8414 13.158 15.1996 13.5998 15.1996Z" fill="black"/>
<path d="M16.8 15.1996C17.2418 15.1996 17.6 14.8414 17.6 14.3996C17.6 13.9578 17.2418 13.5996 16.8 13.5996C16.3582 13.5996 16 13.9578 16 14.3996C16 14.8414 16.3582 15.1996 16.8 15.1996Z" fill="black"/>
<path d="M13.5998 12.0004C14.0416 12.0004 14.3998 11.6422 14.3998 11.2004C14.3998 10.7586 14.0416 10.4004 13.5998 10.4004C13.158 10.4004 12.7998 10.7586 12.7998 11.2004C12.7998 11.6422 13.158 12.0004 13.5998 12.0004Z" fill="black"/>
<path d="M16.8 12.0004C17.2418 12.0004 17.6 11.6422 17.6 11.2004C17.6 10.7586 17.2418 10.4004 16.8 10.4004C16.3582 10.4004 16 10.7586 16 11.2004C16 11.6422 16.3582 12.0004 16.8 12.0004Z" fill="black"/>
<path d="M7.20039 18.3998C7.64222 18.3998 8.00039 18.0416 8.00039 17.5998C8.00039 17.158 7.64222 16.7998 7.20039 16.7998C6.75856 16.7998 6.40039 17.158 6.40039 17.5998C6.40039 18.0416 6.75856 18.3998 7.20039 18.3998Z" fill="black"/>
<path d="M10.3996 18.3998C10.8414 18.3998 11.1996 18.0416 11.1996 17.5998C11.1996 17.158 10.8414 16.7998 10.3996 16.7998C9.95778 16.7998 9.59961 17.158 9.59961 17.5998C9.59961 18.0416 9.95778 18.3998 10.3996 18.3998Z" fill="black"/>
<path d="M13.5998 18.3998C14.0416 18.3998 14.3998 18.0416 14.3998 17.5998C14.3998 17.158 14.0416 16.7998 13.5998 16.7998C13.158 16.7998 12.7998 17.158 12.7998 17.5998C12.7998 18.0416 13.158 18.3998 13.5998 18.3998Z" fill="black"/>
<path d="M8 3.2002V7.2002" stroke="black" stroke-width="2" stroke-linecap="round" stroke-linejoin="round"/>
<path d="M16 3.2002V7.2002" stroke="black" stroke-width="2" stroke-linecap="round" stroke-linejoin="round"/>
</svg>
