<svg width="19" height="17" viewBox="0 0 19 17" fill="none" xmlns="http://www.w3.org/2000/svg">
<path d="M0.536565 13.9495H3.21917V15.5591C3.21917 15.8554 3.45939 16.0956 3.75569 16.0956H17.7768C18.0731 16.0956 18.3133 15.8554 18.3133 15.5591V1.60956C18.3133 1.31326 18.0731 1.07304 17.7768 1.07304H15.0942V0.536521C15.0942 0.240218 14.8539 0 14.5576 0C14.2613 0 14.0211 0.240218 14.0211 0.536521V1.07304H11.3027V0.536521C11.3027 0.240218 11.0625 0 10.7662 0C10.4699 0 10.2297 0.240218 10.2297 0.536521V1.07304H7.5471V0.536521C7.5471 0.240218 7.30688 0 7.01058 0C6.71428 0 6.47406 0.240218 6.47406 0.536521V1.07304H3.75569C3.45939 1.07304 3.21917 1.31326 3.21917 1.60956V4.82869C3.21917 8.78284 1.57581 11.8248 0.193085 13.0009C0.0195383 13.1455 -0.0448084 13.3833 0.0320572 13.5957C0.108994 13.8081 0.310654 13.9495 0.536565 13.9495ZM17.2402 15.0226H4.29221V13.9495H14.5576C14.6831 13.9495 14.8047 13.9055 14.9011 13.8252C15.5461 13.288 16.5451 12.009 17.2402 10.3709V15.0226ZM4.29221 2.14608H6.47406V2.6826C6.47406 2.97891 6.71428 3.21912 7.01058 3.21912C7.30688 3.21912 7.5471 2.97891 7.5471 2.6826V2.14608H10.2297V2.6826C10.2297 2.97891 10.4699 3.21912 10.7662 3.21912C11.0625 3.21912 11.3027 2.97891 11.3027 2.6826V2.14608H14.0211V2.6826C14.0211 2.97891 14.2613 3.21912 14.5576 3.21912C14.8539 3.21912 15.0942 2.97891 15.0942 2.6826V2.14608H17.2402V4.29217H4.29221V2.14608ZM4.28302 5.36485H17.2307C17.1098 8.76836 15.8035 11.4462 14.3473 12.8765H1.75694C3.40702 10.774 4.19449 8.03644 4.28302 5.36485Z" fill="black"/>
</svg>
