<svg width="20" height="19" viewBox="0 0 20 19" fill="none" xmlns="http://www.w3.org/2000/svg">
<mask id="path-1-inside-1_26_2" fill="white">
<path d="M0 3C0 1.34315 1.34315 0 3 0H17C18.6569 0 20 1.34315 20 3V12C20 13.6569 18.6569 15 17 15H10H5.2604C4.77057 15 4.29777 15.1798 3.93167 15.5052L0.0332873 18.9704C0.0203893 18.9819 0 18.9727 0 18.9555V15V3Z"/>
</mask>
<path d="M0.0332873 18.9704L0.697651 19.7178L0.0332873 18.9704ZM3.93167 15.5052L3.26731 14.7578L3.93167 15.5052ZM3 1H17V-1H3V1ZM19 3V12H21V3H19ZM1 15V3H-1V15H1ZM17 14H10V16H17V14ZM10 14H5.2604V16H10V14ZM3.26731 14.7578L-0.631077 18.223L0.697651 19.7178L4.59603 16.2526L3.26731 14.7578ZM1 18.9555V15H-1V18.9555H1ZM19 12C19 13.1046 18.1046 14 17 14V16C19.2091 16 21 14.2091 21 12H19ZM-0.631077 18.223C0.000925716 17.6612 1 18.1099 1 18.9555H-1C-1 19.8356 0.0398528 20.3025 0.697651 19.7178L-0.631077 18.223ZM17 1C18.1046 1 19 1.89543 19 3H21C21 0.790861 19.2091 -1 17 -1V1ZM5.2604 14C4.52566 14 3.81646 14.2696 3.26731 14.7578L4.59603 16.2526C4.77909 16.0899 5.01548 16 5.2604 16V14ZM3 -1C0.790861 -1 -1 0.790861 -1 3H1C1 1.89543 1.89543 1 3 1V-1Z" fill="black" mask="url(#path-1-inside-1_26_2)"/>
</svg>
