<svg width="23" height="21" viewBox="0 0 23 21" fill="none" xmlns="http://www.w3.org/2000/svg">
<path fill-rule="evenodd" clip-rule="evenodd" d="M12.389 20.6575C13.3202 19.8217 14.2174 19.0369 15.0092 18.3447L15.0095 18.3444C17.3262 16.3182 19.3268 14.5684 20.719 12.8443C22.2753 10.9173 23 9.08994 23 7.0937C23 5.1542 22.3521 3.36488 21.1756 2.05512C19.985 0.729882 18.3511 0 16.5749 0C15.2473 0 14.0314 0.430762 12.9612 1.28022C12.6759 1.5066 12.4049 1.75973 12.149 2.03835C11.9203 2.28746 11.7037 2.55693 11.5 2.84587C11.2964 2.55692 11.0798 2.28744 10.851 2.03833C10.5952 1.75972 10.3241 1.50659 10.039 1.28022C8.96876 0.430762 7.75288 0 6.42523 0C4.64889 0 3.01521 0.729882 1.8246 2.05512C0.648033 3.36488 0 5.1542 0 7.0937C0 9.08994 0.724892 10.9173 2.28119 12.8445C3.67342 14.5685 5.67437 16.3185 7.99153 18.345L7.99557 18.3486C8.78591 19.0398 9.68172 19.8233 10.6109 20.6571C10.8569 20.8783 11.1726 21 11.5 21C11.8273 21 12.1431 20.8783 12.389 20.6575Z" fill="black"/>
</svg>
