<svg width="24" height="24" viewBox="0 0 24 24" fill="none" xmlns="http://www.w3.org/2000/svg">
<path d="M12 22.5C11.6797 22.5 11.3709 22.3783 11.1302 22.1571C10.2212 21.3233 9.34491 20.5398 8.57175 19.8486L8.5678 19.845C6.30101 17.8185 4.34356 16.0685 2.9816 14.3445C1.45913 12.4173 0.75 10.5899 0.75 8.5937C0.75 6.6542 1.38395 4.86488 2.53493 3.55512C3.69966 2.22988 5.29782 1.5 7.03555 1.5C8.33434 1.5 9.52378 1.93076 10.5707 2.78022C11.0991 3.209 11.5781 3.73377 12 4.34587C12.4221 3.73377 12.9009 3.209 13.4294 2.78022C14.4764 1.93076 15.6658 1.5 16.9646 1.5C18.7022 1.5 20.3005 2.22988 21.4652 3.55512C22.6162 4.86488 23.25 6.6542 23.25 8.5937C23.25 10.5899 22.541 12.4173 21.0186 14.3443C19.6566 16.0685 17.6993 17.8183 15.4329 19.8447C14.6583 20.5369 13.7806 21.3217 12.8696 22.1575C12.6291 22.3783 12.3201 22.5 12 22.5V22.5ZM7.03555 2.88269C5.67033 2.88269 4.41617 3.45428 3.50379 4.49228C2.57785 5.54596 2.06784 7.00248 2.06784 8.5937C2.06784 10.2726 2.66265 11.7742 3.99629 13.4623C5.28529 15.094 7.20258 16.8081 9.4225 18.7928L9.42662 18.7964C10.2027 19.4903 11.0825 20.2769 11.9981 21.1168C12.9192 20.2752 13.8004 19.4874 14.578 18.7924C16.7978 16.8077 18.7149 15.094 20.0039 13.4623C21.3373 11.7742 21.9322 10.2726 21.9322 8.5937C21.9322 7.00248 21.4221 5.54596 20.4962 4.49228C19.584 3.45428 18.3297 2.88269 16.9646 2.88269C15.9645 2.88269 15.0463 3.2162 14.2355 3.87387C13.513 4.46023 13.0097 5.20145 12.7146 5.7201C12.5629 5.9868 12.2958 6.146 12 6.146C11.7042 6.146 11.4371 5.9868 11.2854 5.7201C10.9905 5.20145 10.4871 4.46023 9.76445 3.87387C8.9537 3.2162 8.03548 2.88269 7.03555 2.88269V2.88269Z" fill="black"/>
</svg>
