<svg width="12" height="11" viewBox="0 0 12 11" fill="none" xmlns="http://www.w3.org/2000/svg">
<path d="M5.625 10.5C5.46484 10.5 5.31043 10.4391 5.1901 10.3286C4.73562 9.91166 4.29746 9.51989 3.91088 9.17431L3.9089 9.17251C2.77551 8.15926 1.79678 7.28423 1.1158 6.42226C0.354567 5.45863 0 4.54497 0 3.54685C0 2.5771 0.316973 1.68244 0.892467 1.02756C1.47483 0.364941 2.27391 0 3.14278 0C3.79217 0 4.38689 0.215381 4.91037 0.64011C5.17456 0.8545 5.41403 1.11688 5.625 1.42294C5.83606 1.11688 6.07544 0.8545 6.33971 0.64011C6.86319 0.215381 7.45791 0 8.10731 0C8.97609 0 9.77526 0.364941 10.3576 1.02756C10.9331 1.68244 11.25 2.5771 11.25 3.54685C11.25 4.54497 10.8955 5.45863 10.1343 6.42217C9.45331 7.28423 8.47466 8.15917 7.34144 9.17233C6.95417 9.51845 6.51532 9.91085 6.05982 10.3287C5.93957 10.4391 5.78507 10.5 5.625 10.5V10.5ZM3.14278 0.691344C2.46017 0.691344 1.83309 0.977138 1.3769 1.49614C0.913925 2.02298 0.658922 2.75124 0.658922 3.54685C0.658922 4.38632 0.956326 5.13709 1.62314 5.98114C2.26765 6.79702 3.22629 7.65404 4.33625 8.64639L4.33831 8.64819C4.72635 8.99513 5.16623 9.38843 5.62406 9.80839C6.08462 9.38762 6.52519 8.99368 6.91401 8.64621C8.02388 7.65386 8.98244 6.79702 9.62694 5.98114C10.2937 5.13709 10.5911 4.38632 10.5911 3.54685C10.5911 2.75124 10.3361 2.02298 9.8731 1.49614C9.417 0.977138 8.78983 0.691344 8.10731 0.691344C7.60726 0.691344 7.14815 0.858102 6.74277 1.18694C6.38151 1.48011 6.12986 1.85073 5.98231 2.11005C5.90644 2.2434 5.77289 2.323 5.625 2.323C5.47711 2.323 5.34356 2.2434 5.26769 2.11005C5.12023 1.85073 4.86857 1.48011 4.50723 1.18694C4.10185 0.858102 3.64274 0.691344 3.14278 0.691344V0.691344Z" fill="black"/>
</svg>
