<svg width="22" height="22" viewBox="0 0 22 22" fill="none" xmlns="http://www.w3.org/2000/svg">
<path d="M11.7253 1.30066L11.7251 1.30049C11.53 1.10532 11.2758 1 11.0001 1C10.7243 1 10.47 1.10528 10.2748 1.30048L10.2748 1.30049L1.30747 10.2668L1.3048 10.2695L1.29732 10.2771C0.900131 10.6765 0.901049 11.3267 1.29915 11.7248L1.29931 11.7249C1.48196 11.9076 1.72029 12.0124 1.97904 12.0235L2.0062 12.0246L2.0158 12.0256H2.35633H3.35633V13.0256V19.6298C3.35633 20.3842 3.97184 21 4.72707 21H7.88304V16.1777C7.88304 15.029 8.81598 14.0963 9.96459 14.0963H12.0357C13.1843 14.0963 14.1172 15.029 14.1172 16.1777V21H17.2732C18.0284 21 18.6439 20.3842 18.6439 19.6298V13.0256V12.0256H19.6439H19.9756C20.2512 12.0256 20.5056 11.9203 20.7011 11.7249C21.0994 11.326 21.0997 10.675 20.7015 10.2757L20.7015 10.2757L20.7015 10.2756L20.7015 10.2756L20.7015 10.2756L20.7015 10.2756C20.7015 10.2756 20.7015 10.2756 20.7015 10.2756C20.7014 10.2756 20.7014 10.2756 20.7014 10.2755M11.7253 1.30066L20.7014 10.2755M11.7253 1.30066L20.7004 10.2745M11.7253 1.30066L20.7004 10.2745M20.7014 10.2755L20.7014 10.2755L20.7014 10.2755C20.7014 10.2755 20.7014 10.2755 20.7014 10.2755ZM20.7013 10.2754C20.7013 10.2754 20.7013 10.2754 20.7013 10.2755C20.7013 10.2755 20.7014 10.2755 20.7014 10.2755L20.7013 10.2754ZM20.7013 10.2754L20.7013 10.2754L20.7013 10.2754L20.7013 10.2754M20.7013 10.2754C20.7013 10.2754 20.7013 10.2754 20.7013 10.2754M20.7013 10.2754C20.7013 10.2754 20.7012 10.2754 20.7012 10.2753M20.7012 10.2753C20.7012 10.2753 20.7012 10.2753 20.7012 10.2753M20.7012 10.2753L21.409 9.56894L20.7012 10.2753M20.7012 10.2753L20.7012 10.2753L20.7012 10.2753L20.7012 10.2753L20.7012 10.2753L20.7011 10.2753L20.7011 10.2753L20.7011 10.2752L20.7011 10.2752L20.7011 10.2752L20.7011 10.2752L20.7011 10.2752L20.7011 10.2752L20.7011 10.2752L20.701 10.2752L20.701 10.2751L20.701 10.2751L20.701 10.2751L20.701 10.2751L20.701 10.2751L20.701 10.2751L20.701 10.2751L20.7009 10.2751L20.7009 10.2751L20.7009 10.275L20.7009 10.275L20.7009 10.275L20.7009 10.275L20.7009 10.275L20.7009 10.275L20.7009 10.275L20.7008 10.275L20.7008 10.2749L20.7008 10.2749L20.7008 10.2749L20.7008 10.2749L20.7008 10.2749L20.7008 10.2749L20.7008 10.2749L20.7007 10.2749L20.7007 10.2749L20.7007 10.2748L20.7007 10.2748L20.7007 10.2748L20.7007 10.2748L20.7007 10.2748L20.7007 10.2748L20.7007 10.2748L20.7006 10.2748L20.7006 10.2747L20.7006 10.2747L20.7006 10.2747L20.7006 10.2747L20.7006 10.2747L20.7006 10.2747L20.7006 10.2747L20.7005 10.2747L20.7005 10.2747L20.7005 10.2746L20.7005 10.2746L20.7005 10.2746L20.7005 10.2746L20.7005 10.2746L20.7004 10.2746L20.7004 10.2745L20.7004 10.2745M20.7012 10.2753L20.7012 10.2753L20.7012 10.2753" stroke="white" stroke-width="2"/>
</svg>
