<svg width="24" height="26" viewBox="0 0 24 26" fill="none" xmlns="http://www.w3.org/2000/svg">
<path d="M10.833 26C8.59387 26 6.77051 24.1778 6.77051 21.9375C6.77051 21.489 7.13451 21.125 7.58301 21.125C8.03151 21.125 8.39551 21.489 8.39551 21.9375C8.39551 23.282 9.48969 24.375 10.833 24.375C12.1763 24.375 13.2705 23.282 13.2705 21.9375C13.2705 21.489 13.6345 21.125 14.083 21.125C14.5315 21.125 14.8955 21.489 14.8955 21.9375C14.8955 24.1778 13.0723 26 10.833 26Z" fill="white"/>
<path d="M19.7708 22.75H1.89577C0.850388 22.75 0 21.8996 0 20.8542C0 20.2994 0.241608 19.7741 0.662933 19.4133C0.690109 19.3895 0.719269 19.3679 0.749619 19.3483C2.3399 17.9605 3.25 15.964 3.25 13.8557V10.8333C3.25 6.65175 6.65274 3.25 10.8333 3.25C11.0066 3.25 11.1941 3.25317 11.3675 3.28253C11.8104 3.35612 12.1095 3.77547 12.0358 4.21742C11.9622 4.65938 11.5353 4.95851 11.1009 4.88472C11.0142 4.87064 10.919 4.875 10.8333 4.875C7.54875 4.875 4.875 7.54756 4.875 10.8333V13.8557C4.875 16.4732 3.72766 18.9497 1.73013 20.6493C1.71387 20.6624 1.69978 20.6743 1.68233 20.6862C1.65317 20.7231 1.625 20.7794 1.625 20.8542C1.625 21.0014 1.74858 21.125 1.89577 21.125H19.7708C19.9182 21.125 20.0417 21.0014 20.0417 20.8542C20.0417 20.7783 20.0136 20.7231 19.9832 20.6862C19.9669 20.6743 19.9529 20.6624 19.9366 20.6493C17.9379 18.9485 16.7917 16.4732 16.7917 13.8557V12.6751C16.7917 12.2266 17.1557 11.8626 17.6042 11.8626C18.0527 11.8626 18.4167 12.2266 18.4167 12.6751V13.8557C18.4167 15.9651 19.3278 17.9627 20.9203 19.3516C20.9494 19.3711 20.9776 19.3917 21.0036 19.4145C21.4251 19.7741 21.6667 20.2994 21.6667 20.8542C21.6667 21.8996 20.8163 22.75 19.7708 22.75Z" fill="white"/>
<path d="M18.4167 10.8333C15.43 10.8333 13 8.4035 13 5.41673C13 2.42996 15.43 0 18.4167 0C21.4035 0 23.8333 2.42996 23.8333 5.41673C23.8333 8.4035 21.4035 10.8333 18.4167 10.8333ZM18.4167 1.625C16.3258 1.625 14.625 3.32578 14.625 5.41673C14.625 7.50749 16.3258 9.20827 18.4167 9.20827C20.5075 9.20827 22.2083 7.50749 22.2083 5.41673C22.2083 3.32578 20.5075 1.625 18.4167 1.625Z" fill="white"/>
<circle cx="18.5" cy="5.5" r="5.5" fill="#FD4A3B"/>
</svg>
