<svg
  fill="none"
  height="24"
  viewBox="0 0 24 24"
  width="24"
  xmlns="http://www.w3.org/2000/svg"
>
  <path
    d="M1 18.3892C1 18.8151 1.15545 19.1559 1.46635 19.4115C1.77725 19.667 2.20862 19.7947 2.76047 19.7947H7.68045C7.71155 20.546 7.91558 21.2391 8.29254 21.8742C8.66951 22.5092 9.17666 23.0223 9.814 23.4133C10.4513 23.8044 11.1781 24 11.9942 24C12.818 24 13.5486 23.8064 14.186 23.4191C14.8234 23.0319 15.3305 22.5189 15.7075 21.88C16.0845 21.2411 16.2885 20.546 16.3195 19.7947H21.2395C21.7914 19.7947 22.2228 19.667 22.5337 19.4115C22.8446 19.1559 23 18.8151 23 18.3892C23 18.0019 22.8873 17.6263 22.6619 17.2623C22.4365 16.8983 22.1548 16.5421 21.8167 16.1936C21.4786 15.8451 21.1424 15.4966 20.8082 15.1481C20.5517 14.8848 20.3516 14.5401 20.2078 14.1142C20.064 13.6882 19.9571 13.2352 19.8871 12.7551C19.8172 12.2749 19.7667 11.8103 19.7356 11.3611C19.7123 9.83542 19.551 8.4937 19.2518 7.3359C18.9525 6.17811 18.4881 5.212 17.8585 4.43756C17.229 3.66312 16.3973 3.09003 15.3635 2.7183C15.1692 1.95934 14.7748 1.31655 14.1802 0.789931C13.5856 0.26331 12.857 0 11.9942 0C11.1392 0 10.4144 0.26331 9.81984 0.789931C9.22524 1.31655 8.83078 1.95934 8.63647 2.7183C7.60273 3.09003 6.76914 3.66312 6.13568 4.43756C5.50222 5.212 5.03781 6.17811 4.74246 7.3359C4.4471 8.4937 4.28777 9.83542 4.26445 11.3611C4.23336 11.8103 4.18283 12.2749 4.11288 12.7551C4.04293 13.2352 3.93606 13.6882 3.79227 14.1142C3.64848 14.5401 3.44833 14.8848 3.19185 15.1481C2.85763 15.4966 2.52147 15.8451 2.18336 16.1936C1.84526 16.5421 1.56351 16.8983 1.3381 17.2623C1.1127 17.6263 1 18.0019 1 18.3892ZM3.26179 18.0406V17.9012C3.33175 17.7928 3.44833 17.6476 3.61156 17.4656C3.77478 17.2836 3.95938 17.0842 4.16535 16.8674C4.37132 16.6505 4.57535 16.4297 4.77743 16.2052C4.98728 15.9729 5.16994 15.7038 5.3254 15.3978C5.48084 15.0919 5.61298 14.7454 5.72179 14.3582C5.83061 13.9709 5.9161 13.5411 5.97828 13.0687C6.04046 12.5963 6.0871 12.0774 6.11819 11.5121C6.14928 9.8238 6.32416 8.48402 6.64283 7.49273C6.9615 6.50145 7.38704 5.76379 7.91946 5.27977C8.45188 4.79573 9.0523 4.46079 9.72074 4.27492C9.86841 4.24395 9.98111 4.1878 10.0588 4.10648C10.1366 4.02517 10.1793 3.91093 10.1871 3.76379C10.2104 3.15972 10.3833 2.66602 10.7059 2.28268C11.0285 1.89932 11.4579 1.70765 11.9942 1.70765C12.5383 1.70765 12.9716 1.89932 13.2942 2.28268C13.6167 2.66602 13.7896 3.15972 13.8129 3.76379C13.8129 3.91093 13.8538 4.02517 13.9354 4.10648C14.017 4.1878 14.1277 4.24395 14.2677 4.27492C14.9361 4.46079 15.5365 4.79573 16.069 5.27977C16.6013 5.76379 17.0288 6.50145 17.3514 7.49273C17.674 8.48402 17.8508 9.8238 17.8818 11.5121C17.9051 12.0774 17.9498 12.5963 18.0159 13.0687C18.082 13.5411 18.1675 13.9709 18.2725 14.3582C18.3774 14.7454 18.5075 15.0919 18.663 15.3978C18.8184 15.7038 19.0011 15.9729 19.2109 16.2052C19.4208 16.4297 19.6288 16.6505 19.8347 16.8674C20.0407 17.0842 20.2234 17.2836 20.3827 17.4656C20.542 17.6476 20.6566 17.7928 20.7265 17.9012V18.0406H3.26179ZM9.49922 19.7947H14.5008C14.4542 20.5847 14.2016 21.21 13.743 21.6709C13.2844 22.1316 12.7015 22.362 11.9942 22.362C11.2947 22.362 10.7137 22.1316 10.2512 21.6709C9.78875 21.21 9.53808 20.5847 9.49922 19.7947Z"
    fill="#000"
  />
</svg>
