<svg width="18" height="18" viewBox="0 0 18 18" fill="none" xmlns="http://www.w3.org/2000/svg">
<path d="M9 17C13.4183 17 17 13.4183 17 9C17 4.58172 13.4183 1 9 1C4.58172 1 1 4.58172 1 9C1 13.4183 4.58172 17 9 17Z" stroke="black" stroke-linecap="round" stroke-linejoin="round"/>
<path d="M1 9H17" stroke="black" stroke-linecap="round" stroke-linejoin="round"/>
<path d="M9.00005 17C10.7674 17 12.2 13.4183 12.2 9C12.2 4.58172 10.7674 1 9.00005 1C7.23273 1 5.80005 4.58172 5.80005 9C5.80005 13.4183 7.23273 17 9.00005 17Z" stroke="black" stroke-linecap="round" stroke-linejoin="round"/>
<path d="M3.34314 3.45703C4.79086 4.90475 6.79086 5.80019 8.99998 5.80019C11.2091 5.80019 13.2091 4.90475 14.6569 3.45703" stroke="black" stroke-linecap="round" stroke-linejoin="round"/>
<path d="M14.6569 14.5434C13.2091 13.0956 11.2091 12.2002 8.99998 12.2002C6.79086 12.2002 4.79086 13.0956 3.34314 14.5434" stroke="black" stroke-linecap="round" stroke-linejoin="round"/>
</svg>
