<svg width="16" height="21" viewBox="0 0 16 21" fill="none" xmlns="http://www.w3.org/2000/svg">
<mask id="path-1-inside-1_2213_2013" fill="white">
<path fill-rule="evenodd" clip-rule="evenodd" d="M0.5 7.75C0.5 3.61375 3.86375 0.25 8 0.25C12.1363 0.25 15.5 3.61375 15.5 7.75C15.5 12.9487 8.73 19.7788 8.4425 20.0675C8.32 20.1888 8.16 20.25 8 20.25C7.84 20.25 7.68 20.1888 7.5575 20.0675C7.27 19.7788 0.5 12.9487 0.5 7.75ZM5 8C5 6.346 6.346 5 8 5C9.654 5 11 6.346 11 8C11 9.654 9.654 11 8 11C6.346 11 5 9.654 5 8Z"/>
</mask>
<path d="M8 9.25C7.31121 9.25 6.75 8.68879 6.75 8H5.25C5.25 9.51721 6.48279 10.75 8 10.75V9.25ZM6.75 8C6.75 7.31121 7.31121 6.75 8 6.75V5.25C6.48279 5.25 5.25 6.48279 5.25 8H6.75ZM8.4425 20.0675L9.49774 21.1336L9.50546 21.1259L8.4425 20.0675ZM7.5575 20.0675L6.49451 21.1259L6.50229 21.1336L7.5575 20.0675ZM8 -1.25C3.03532 -1.25 -1 2.78532 -1 7.75H2C2 4.44218 4.69218 1.75 8 1.75V-1.25ZM17 7.75C17 2.78532 12.9647 -1.25 8 -1.25V1.75C11.3078 1.75 14 4.44218 14 7.75H17ZM9.50546 21.1259C9.67198 20.9586 11.4994 19.1147 13.2951 16.6282C14.1931 15.3847 15.1055 13.9501 15.7981 12.4592C16.484 10.9826 17 9.35449 17 7.75H14C14 8.74489 13.6697 9.92009 13.0773 11.1953C12.4916 12.4562 11.6935 13.7218 10.863 14.8718C9.20181 17.1721 7.50052 18.8876 7.37954 19.0091L9.50546 21.1259ZM8 21.75C8.54274 21.75 9.08565 21.5414 9.49771 21.1336L7.38729 19.0014C7.55435 18.8361 7.77726 18.75 8 18.75V21.75ZM6.50229 21.1336C6.91435 21.5414 7.45726 21.75 8 21.75V18.75C8.22274 18.75 8.44565 18.8361 8.61271 19.0014L6.50229 21.1336ZM-1 7.75C-1 9.35449 -0.484043 10.9826 0.201931 12.4592C0.894537 13.9501 1.80691 15.3847 2.70488 16.6282C4.50056 19.1147 6.32802 20.9586 6.49454 21.1259L8.62046 19.0091C8.49948 18.8876 6.79819 17.1721 5.13699 14.8718C4.30653 13.7218 3.50843 12.4562 2.92268 11.1953C2.33029 9.92009 2 8.74489 2 7.75H-1ZM8 3.5C5.51757 3.5 3.5 5.51757 3.5 8H6.5C6.5 7.17443 7.17443 6.5 8 6.5V3.5ZM12.5 8C12.5 5.51757 10.4824 3.5 8 3.5V6.5C8.82557 6.5 9.5 7.17443 9.5 8H12.5ZM8 12.5C10.4824 12.5 12.5 10.4824 12.5 8H9.5C9.5 8.82557 8.82557 9.5 8 9.5V12.5ZM3.5 8C3.5 10.4824 5.51757 12.5 8 12.5V9.5C7.17443 9.5 6.5 8.82557 6.5 8H3.5Z" fill="#000" mask="url(#path-1-inside-1_2213_2013)"/>
</svg>
