<svg width="23" height="23" viewBox="0 0 23 23" fill="none" xmlns="http://www.w3.org/2000/svg">
<path d="M20.125 0H2.875C1.28993 0 0 1.28993 0 2.875V20.125C0 21.7101 1.28993 23 2.875 23H20.125C21.7101 23 23 21.7101 23 20.125V2.875C23 1.28993 21.7101 0 20.125 0ZM21.0833 20.125C21.0833 20.654 20.653 21.0833 20.125 21.0833H2.875C2.34694 21.0833 1.91668 20.654 1.91668 20.125V2.875C1.91668 2.34694 2.34699 1.91668 2.875 1.91668H20.125C20.6531 1.91668 21.0833 2.34699 21.0833 2.875V20.125Z" fill="#000"/>
<path d="M6.63175 5.38616C6.58382 5.26159 6.51675 5.16572 6.4305 5.06991C6.38257 5.03159 6.33468 4.99322 6.28675 4.95491C6.22925 4.91659 6.17175 4.88784 6.11425 4.86866C6.05675 4.83991 5.99925 4.82072 5.94175 4.81116C5.75007 4.77284 5.55843 4.79197 5.38593 4.86866C5.27093 4.91659 5.1655 4.98366 5.06968 5.06991C4.98343 5.16572 4.91636 5.26159 4.86843 5.38616C4.8205 5.50116 4.79175 5.62572 4.79175 5.75034C4.79175 5.87495 4.8205 5.99952 4.86843 6.11452C4.91636 6.23909 4.98343 6.33495 5.06968 6.43077C5.25175 6.60327 5.50093 6.7087 5.75011 6.7087C5.80761 6.7087 5.87468 6.69913 5.94179 6.68952C5.99929 6.67995 6.05679 6.66077 6.11429 6.63202C6.17179 6.61284 6.22929 6.58409 6.28679 6.54577C6.33472 6.50745 6.38261 6.46909 6.43054 6.43077C6.60304 6.2487 6.70847 5.99952 6.70847 5.75034C6.70839 5.62577 6.67963 5.50116 6.63175 5.38616Z" fill="#000"/>
<path d="M17.25 4.79199H9.58332C9.05432 4.79199 8.625 5.22131 8.625 5.75031C8.625 6.27931 9.05432 6.70863 9.58332 6.70863H17.25C17.779 6.70863 18.2083 6.27931 18.2083 5.75031C18.2083 5.22131 17.779 4.79199 17.25 4.79199Z" fill="#000"/>
<path d="M6.68925 11.3087C6.67968 11.2512 6.6605 11.1937 6.63175 11.1362C6.61257 11.0787 6.58382 11.0212 6.5455 10.9637C6.50718 10.9158 6.46882 10.8679 6.4305 10.82C6.33468 10.7337 6.22925 10.6667 6.11425 10.6187C5.88425 10.5229 5.61593 10.5229 5.38593 10.6187C5.27093 10.6667 5.1655 10.7337 5.06968 10.82C5.03136 10.8679 4.993 10.9158 4.95468 10.9637C4.91636 11.0212 4.88761 11.0787 4.86843 11.1362C4.83968 11.1937 4.8205 11.2512 4.81093 11.3087C4.80136 11.3758 4.79175 11.4429 4.79175 11.5004C4.79175 11.7496 4.89718 11.9987 5.06968 12.1809C5.25175 12.3534 5.50093 12.4588 5.75011 12.4588C5.99929 12.4588 6.24843 12.3534 6.43054 12.1809C6.60304 11.9988 6.70847 11.7496 6.70847 11.5004C6.70839 11.4429 6.69882 11.3759 6.68925 11.3087Z" fill="#000"/>
<path d="M17.25 10.542H9.58332C9.05432 10.542 8.625 10.9713 8.625 11.5003C8.625 12.0293 9.05432 12.4586 9.58332 12.4586H17.25C17.779 12.4586 18.2083 12.0293 18.2083 11.5003C18.2083 10.9713 17.779 10.542 17.25 10.542Z" fill="#000"/>
<path d="M6.63175 16.8858C6.58382 16.7612 6.51675 16.6653 6.4305 16.5695C6.16218 16.3098 5.7405 16.2245 5.38593 16.3683C5.27093 16.4162 5.1655 16.4833 5.06968 16.5695C4.98343 16.6653 4.91636 16.7708 4.86843 16.8858C4.8205 17.0008 4.79175 17.1253 4.79175 17.25C4.79175 17.5087 4.88757 17.7483 5.06968 17.9304C5.25175 18.1115 5.49136 18.2083 5.75011 18.2083C6.00886 18.2083 6.24843 18.1115 6.43054 17.9304C6.61261 17.7483 6.70847 17.5087 6.70847 17.25C6.70839 17.1254 6.68925 17.0008 6.63175 16.8858Z" fill="#000"/>
<path d="M17.25 16.292H9.58332C9.05432 16.292 8.625 16.7204 8.625 17.2503C8.625 17.7803 9.05432 18.2086 9.58332 18.2086H17.25C17.779 18.2086 18.2083 17.7803 18.2083 17.2503C18.2083 16.7204 17.779 16.292 17.25 16.292Z" fill="#000"/>
</svg>
