<svg width="20" height="19" viewBox="0 0 20 19" fill="none" xmlns="http://www.w3.org/2000/svg">
<rect x="1.15" y="1.15" width="6.33636" height="6.33636" stroke="#000" stroke-width="2.3"/>
<path d="M12.9551 19L12.9551 15.5455L16.4096 15.5455L16.4096 12.0909L17.9345 12.0909L19.8642 12.0909L19.8642 19L12.9551 19Z" fill="#000"/>
<path d="M19.8638 6.90906L16.4092 6.90906L16.4092 3.55572L12.9547 3.55572L12.9547 1.92965L12.9547 -3.27746e-05L19.8638 -3.33786e-05L19.8638 6.90906Z" fill="#000"/>
<path d="M6.90918 19L6.90918 15.5455L3.55584 15.5455L3.55584 12.0909L1.92978 12.0909L8.89937e-05 12.0909L8.86917e-05 19L6.90918 19Z" fill="#000"/>
<path d="M11.2271 6.90906H16.4089V10.262H11.2271V6.90906Z" fill="#000"/>
<path d="M8.73779 12.193H12.0907V15.5459H8.73779V12.193Z" fill="#000"/>
</svg>
