<svg width="23" height="21" viewBox="0 0 23 21" fill="none" xmlns="http://www.w3.org/2000/svg">
<path d="M22.3852 11.1678C22.7335 10.786 22.7335 10.2017 22.3852 9.81991L14.2533 0.905983C13.6378 0.231352 12.5145 0.666761 12.5145 1.57994V5.88498H11.2965C8.27917 5.88498 5.44233 7.05962 3.30868 9.19253C1.17504 11.3254 0 14.1613 0 17.1777V19.4215C0 20.3345 1.12293 20.77 1.73851 20.0958L2.01235 19.7958C4.7042 16.8477 8.52527 15.1422 12.5145 15.1034V19.4079C12.5145 20.3211 13.6378 20.7565 14.2533 20.0819L22.3852 11.1678ZM1.34829 18.535V17.1777C1.34829 14.5214 2.38308 12.0238 4.26202 10.1455C6.14096 8.26724 8.6392 7.23281 11.2965 7.23281H13.8626V2.47811L21.1755 10.4939L13.8626 18.5098V13.7551H12.653C8.39731 13.7551 4.30485 15.4914 1.34829 18.535Z" fill="black"/>
</svg>
