<svg width="10" height="9" viewBox="0 0 10 9" fill="none" xmlns="http://www.w3.org/2000/svg">
<path d="M9.8535 4.14646L5.8535 0.146457C5.78358 0.0765304 5.6945 0.0289077 5.59752 0.00961149C5.50053 -0.00968469 5.4 0.000212319 5.30864 0.038051C5.21729 0.0758897 5.1392 0.139971 5.08426 0.222189C5.02932 0.304408 5 0.401072 5 0.499957V2.27242C3.63415 2.39884 2.36463 3.03039 1.43986 4.04348C0.5151 5.05656 0.00165425 6.37827 1.46702e-09 7.74996V8.49996C-7.95064e-06 8.6038 0.0323131 8.70506 0.0924762 8.78969C0.152639 8.87432 0.237659 8.93813 0.335734 8.97224C0.433808 9.00636 0.54007 9.00909 0.639769 8.98006C0.739467 8.95104 0.827655 8.89169 0.89209 8.81026C1.38191 8.22773 1.98291 7.74865 2.65998 7.40102C3.33705 7.05339 4.07661 6.84418 4.83545 6.7856C4.86035 6.78243 4.92285 6.77755 5 6.77266V8.49996C5 8.59884 5.02932 8.69551 5.08426 8.77773C5.1392 8.85994 5.21729 8.92402 5.30864 8.96186C5.4 8.9997 5.50053 9.0096 5.59752 8.9903C5.6945 8.97101 5.78358 8.92338 5.8535 8.85346L9.8535 4.85346C9.89994 4.80704 9.93677 4.75193 9.9619 4.69128C9.98704 4.63062 9.99997 4.56561 9.99997 4.49996C9.99997 4.4343 9.98704 4.36929 9.9619 4.30864C9.93677 4.24798 9.89994 4.19287 9.8535 4.14646ZM6 7.29293V6.24996C6.00002 6.18429 5.9871 6.11927 5.96197 6.0586C5.93685 5.99792 5.90002 5.9428 5.85359 5.89637C5.80716 5.84993 5.75203 5.8131 5.69136 5.78798C5.63069 5.76286 5.56567 5.74994 5.5 5.74996C5.37256 5.74996 4.85205 5.77462 4.71924 5.79246C3.37154 5.91658 2.08868 6.4286 1.02588 7.26656C1.14645 6.16372 1.66959 5.14411 2.49513 4.40299C3.32068 3.66187 4.39059 3.25132 5.5 3.24996C5.56567 3.24997 5.63069 3.23705 5.69136 3.21193C5.75203 3.18681 5.80716 3.14998 5.85359 3.10355C5.90002 3.05712 5.93685 3.00199 5.96197 2.94132C5.9871 2.88065 6.00002 2.81562 6 2.74996V1.70699L8.79297 4.49996L6 7.29293Z" fill="black"/>
</svg>
