<svg width="30" height="30" viewBox="0 0 30 30" fill="none" xmlns="http://www.w3.org/2000/svg">
<path d="M25.3125 9.88125V5.15625C25.3125 5.08348 25.2956 5.01171 25.263 4.94662C25.2305 4.88153 25.1832 4.82492 25.125 4.78125C25.0673 4.73831 25.0006 4.70921 24.9298 4.69621C24.8591 4.6832 24.7864 4.68664 24.7172 4.70625L10.9922 8.56407C11.1598 8.80127 11.2499 9.08455 11.25 9.375V16.875C11.2492 17.1938 11.1401 17.5029 10.9406 17.7516L24.6891 22.5C24.7404 22.5068 24.7924 22.5068 24.8438 22.5C24.9418 22.5014 25.0374 22.47 25.1156 22.4109C25.1762 22.3678 25.2257 22.3109 25.2599 22.2449C25.2941 22.1788 25.3122 22.1056 25.3125 22.0313V16.3688C26.0881 16.2505 26.7956 15.8583 27.3068 15.2632C27.818 14.6681 28.0991 13.9095 28.0991 13.125C28.0991 12.3405 27.818 11.5819 27.3068 10.9868C26.7956 10.3918 26.0881 9.99952 25.3125 9.88125ZM9.84375 8.90625H6.09375C4.97487 8.90625 3.90181 9.35073 3.11064 10.1419C2.31947 10.9331 1.875 12.0061 1.875 13.125C1.875 14.2439 2.31947 15.3169 3.11064 16.1081C3.90181 16.8993 4.97487 17.3438 6.09375 17.3438H9.84375C9.96807 17.3438 10.0873 17.2944 10.1752 17.2065C10.2631 17.1186 10.3125 16.9993 10.3125 16.875V9.375C10.3125 9.25068 10.2631 9.13145 10.1752 9.04355C10.0873 8.95564 9.96807 8.90625 9.84375 8.90625ZM9.375 18.2813H6.5625V24.8438C6.5625 24.9681 6.61189 25.0873 6.69979 25.1752C6.7877 25.2631 6.90693 25.3125 7.03125 25.3125H9.84375C9.96807 25.3125 10.0873 25.2631 10.1752 25.1752C10.2631 25.0873 10.3125 24.9681 10.3125 24.8438V18.1969C10.1628 18.2537 10.0039 18.2823 9.84375 18.2813H9.375Z" fill="black"/>
</svg>
