<svg width="30" height="30" viewBox="0 0 30 30" fill="none" xmlns="http://www.w3.org/2000/svg">
<path d="M25.6477 14.1454C25.6477 14.1455 25.6477 14.1455 25.6477 14.1455C25.6477 14.1455 25.6477 14.1455 25.6478 14.1455L25.6478 14.1455L25.6478 14.1455L25.6478 14.1455L25.6478 14.1456C25.6478 14.1456 25.6478 14.1456 25.6478 14.1456C25.6478 14.1456 25.6479 14.1456 25.6479 14.1456C26.1176 14.6167 26.1173 15.3844 25.6473 15.8551C25.417 16.0853 25.1163 16.2097 24.7916 16.2097H24.4298H23.4298V17.2097V24.4144C23.4298 25.2876 22.7176 26 21.8435 26H18.3097V20.6484C18.3097 19.4455 17.3327 18.4687 16.1298 18.4687H13.8705C12.6676 18.4687 11.6906 19.4455 11.6906 20.6484V26H8.1568C7.28273 26 6.57054 25.2876 6.57054 24.4144V17.2097V16.2097H5.57054H5.19463L5.18221 16.2085L5.15505 16.2073C4.85008 16.1943 4.56852 16.0706 4.35314 15.8551L4.35297 15.8549C3.88323 15.3852 3.88219 14.6185 4.35079 14.1472L4.35849 14.1395L4.36166 14.1362L14.1446 4.35443L14.1446 4.35442C14.3746 4.12443 14.6752 4 15.0001 4C15.325 4 15.6255 4.12448 15.8553 4.35445L15.8555 4.35462L25.6477 14.1454ZM25.6477 14.1454L25.6477 14.1454L25.6477 14.1454C25.6477 14.1454 25.6477 14.1454 25.6477 14.1454ZM25.6476 14.1453C25.6476 14.1454 25.6476 14.1454 25.6476 14.1454C25.6476 14.1454 25.6476 14.1454 25.6476 14.1454L25.6476 14.1453ZM25.6476 14.1453L25.6476 14.1453L25.6476 14.1453M25.6476 14.1453C25.6476 14.1453 25.6476 14.1453 25.6476 14.1453M25.6476 14.1453C25.6476 14.1453 25.6476 14.1453 25.6476 14.1453" stroke="black" stroke-width="2"/>
</svg>
