<svg width="30" height="30" viewBox="0 0 30 30" fill="none" xmlns="http://www.w3.org/2000/svg">
<path fill-rule="evenodd" clip-rule="evenodd" d="M13.6364 6H5V14.6364H13.6364V6ZM11.0454 8.59082H7.59082V12.0454H11.0454V8.59082Z" fill="black"/>
<path d="M17.9553 25L17.9553 21.5455L21.4099 21.5455L21.4099 18.0909L22.9347 18.0909L24.8644 18.0909L24.8644 25L17.9553 25Z" fill="black"/>
<path d="M24.8638 12.9092L21.4092 12.9092L21.4092 9.55584L17.9547 9.55584L17.9547 7.92978L17.9547 6.00009L24.8638 6.00009L24.8638 12.9092Z" fill="black"/>
<path d="M11.9092 25L11.9092 21.5455L8.55584 21.5455L8.55584 18.0909L6.92978 18.0909L5.00009 18.0909L5.00009 25L11.9092 25Z" fill="black"/>
<path d="M16.2273 12.9092H21.4091V16.2621H16.2273V12.9092Z" fill="black"/>
<path d="M13.7375 18.1929H17.0905V21.5458H13.7375V18.1929Z" fill="black"/>
</svg>
